<svg width="1024" height="1024" viewBox="0 0 1024 1024" fill="none" xmlns="http://www.w3.org/2000/svg">
  <defs>
    <linearGradient id="bg" x1="144" y1="96" x2="912" y2="960" gradientUnits="userSpaceOnUse">
      <stop stop-color="#F8FBFF" />
      <stop offset="0.52" stop-color="#EAF0F6" />
      <stop offset="1" stop-color="#DDE6EE" />
    </linearGradient>
    <radialGradient id="glow" cx="0" cy="0" r="1" gradientUnits="userSpaceOnUse" gradientTransform="translate(768 212) rotate(129.144) scale(532.119 501.246)">
      <stop stop-color="#B8DDE8" stop-opacity="0.9" />
      <stop offset="1" stop-color="#B8DDE8" stop-opacity="0" />
    </radialGradient>
    <linearGradient id="glass" x1="316" y1="240" x2="708" y2="816" gradientUnits="userSpaceOnUse">
      <stop stop-color="#FFFFFF" stop-opacity="0.82" />
      <stop offset="1" stop-color="#FFFFFF" stop-opacity="0.16" />
    </linearGradient>
  </defs>

  <rect x="64" y="64" width="896" height="896" rx="224" fill="url(#bg)" />
  <rect x="64" y="64" width="896" height="896" rx="224" fill="url(#glow)" />

  <g filter="url(#shadow)">
    <rect x="212" y="212" width="600" height="600" rx="180" fill="url(#glass)" />
    <rect x="212.5" y="212.5" width="599" height="599" rx="179.5" stroke="white" stroke-opacity="0.72" />
  </g>

  <path d="M326 440C362 340 458 272 566 272C650 272 724 314 774 382C788 401 775 428 752 428H365C337 428 316 467 326 440Z" fill="#101828" />
  <path d="M266 488C266 458.177 290.177 434 320 434H738C767.823 434 792 458.177 792 488C792 517.823 767.823 542 738 542H320C290.177 542 266 517.823 266 488Z" fill="#101828" />
  <path d="M338 566C338 458.857 424.857 372 532 372C639.143 372 726 458.857 726 566C726 673.143 639.143 760 532 760C424.857 760 338 673.143 338 566Z" fill="#111827" />
  <path d="M386 566C386 485.366 451.366 420 532 420C612.634 420 678 485.366 678 566C678 646.634 612.634 712 532 712C451.366 712 386 646.634 386 566Z" fill="#17212F" />
  <circle cx="610" cy="554" r="60" fill="#63B3BF" />
  <circle cx="610" cy="554" r="29" fill="#EAFBFF" />
  <path d="M396 694C446 640.667 493.333 614 538 614C582.667 614 626.667 640.667 670 694" stroke="#A7B6C7" stroke-width="34" stroke-linecap="round" />

  <defs>
    <filter id="shadow" x="168" y="184" width="688" height="688" filterUnits="userSpaceOnUse" color-interpolation-filters="sRGB">
      <feFlood flood-opacity="0" result="BackgroundImageFix"/>
      <feColorMatrix in="SourceAlpha" type="matrix" values="0 0 0 0 0 0 0 0 0 0 0 0 0 0 0 0 0 0 127 0" result="hardAlpha"/>
      <feOffset dy="20"/>
      <feGaussianBlur stdDeviation="22"/>
      <feComposite in2="hardAlpha" operator="out"/>
      <feColorMatrix type="matrix" values="0 0 0 0 0.533333 0 0 0 0 0.611765 0 0 0 0 0.694118 0 0 0 0.2 0"/>
      <feBlend mode="normal" in2="BackgroundImageFix" result="effect1_dropShadow_1_1"/>
      <feBlend mode="normal" in="SourceGraphic" in2="effect1_dropShadow_1_1" result="shape"/>
    </filter>
  </defs>
</svg>
